<?xml version="1.0" standalone="no"?>
<!DOCTYPE svg PUBLIC "-//W3C//DTD SVG 20010904//EN"
 "http://www.w3.org/TR/2001/REC-SVG-20010904/DTD/svg10.dtd">
<svg version="1.0" xmlns="http://www.w3.org/2000/svg"
 width="64.000000pt" height="64.000000pt" viewBox="0 0 64.000000 64.000000"
 preserveAspectRatio="xMidYMid meet">

<g transform="translate(0.000000,64.000000) scale(0.100000,-0.100000)"
fill="#000000" stroke="none">
<path d="M276 538 c-9 -12 -16 -30 -16 -40 0 -15 -9 -18 -55 -18 -71 0 -75 -7
-111 -187 -39 -196 -55 -183 226 -183 281 0 265 -13 226 183 -37 182 -39 187
-116 187 -54 0 -60 2 -60 21 0 58 -62 82 -94 37z m62 -31 c3 -23 0 -27 -22
-27 -28 0 -36 26 -14 48 18 18 33 9 36 -21z m13 -124 c31 -29 39 -63 15 -63
-8 0 -16 7 -20 15 -7 19 -46 20 -46 1 0 -8 17 -23 38 -33 48 -23 52 -51 13
-93 l-30 -33 -30 29 c-17 16 -31 34 -31 41 0 20 22 27 32 9 12 -22 51 -21 46
1 -2 10 -12 19 -23 21 -27 5 -55 32 -55 53 0 14 47 79 58 79 2 0 17 -12 33
-27z"/>
</g>
</svg>
